<?xml version="1.0" encoding="UTF-8" standalone="no"?>
<!DOCTYPE svg PUBLIC "-//W3C//DTD SVG 1.1//EN"
 "http://www.w3.org/Graphics/SVG/1.1/DTD/svg11.dtd">
<!-- Generated by graphviz version 12.2.1 (20241206.2353)
 -->
<!-- Pages: 1 -->
<svg width="605pt" height="813pt"
 viewBox="0.00 0.00 605.25 812.50" xmlns="http://www.w3.org/2000/svg" xmlns:xlink="http://www.w3.org/1999/xlink">
<g id="graph0" class="graph" transform="scale(1 1) rotate(0) translate(4 808.5)">
<polygon fill="white" stroke="none" points="-4,4 -4,-808.5 601.25,-808.5 601.25,4 -4,4"/>
<!-- 4394405456 -->
<g id="node1" class="node">
<title>4394405456</title>
<polygon fill="none" stroke="black" points="246,-365.5 246,-439 351.25,-439 351.25,-365.5 246,-365.5"/>
<text text-anchor="middle" x="298.62" y="-421.7" font-family="Times,serif" font-size="14.00">w0x0 + w1x1</text>
<polyline fill="none" stroke="black" points="246,-414.5 351.25,-414.5"/>
<text text-anchor="middle" x="298.62" y="-397.2" font-family="Times,serif" font-size="14.00">data: 3.0400</text>
<polyline fill="none" stroke="black" points="246,-390 351.25,-390"/>
<text text-anchor="middle" x="298.62" y="-372.7" font-family="Times,serif" font-size="14.00">gradient: 1.0000</text>
</g>
<!-- 4394405072+ -->
<g id="node8" class="node">
<title>4394405072+</title>
<ellipse fill="none" stroke="black" cx="236.62" cy="-311" rx="27" ry="18"/>
<text text-anchor="middle" x="236.62" y="-305.95" font-family="Times,serif" font-size="14.00">+</text>
</g>
<!-- 4394405456&#45;&gt;4394405072+ -->
<g id="edge11" class="edge">
<title>4394405456&#45;&gt;4394405072+</title>
<path fill="none" stroke="black" d="M273.59,-365.21C267.04,-355.79 260.13,-345.84 254.08,-337.12"/>
<polygon fill="black" stroke="black" points="257.11,-335.36 248.53,-329.14 251.36,-339.35 257.11,-335.36"/>
</g>
<!-- 4394405456+ -->
<g id="node2" class="node">
<title>4394405456+</title>
<ellipse fill="none" stroke="black" cx="298.62" cy="-493.5" rx="27" ry="18"/>
<text text-anchor="middle" x="298.62" y="-488.45" font-family="Times,serif" font-size="14.00">+</text>
</g>
<!-- 4394405456+&#45;&gt;4394405456 -->
<g id="edge1" class="edge">
<title>4394405456+&#45;&gt;4394405456</title>
<path fill="none" stroke="black" d="M298.62,-475.29C298.62,-468.1 298.62,-459.35 298.62,-450.47"/>
<polygon fill="black" stroke="black" points="302.13,-450.76 298.63,-440.76 295.13,-450.76 302.13,-450.76"/>
</g>
<!-- 4394407504 -->
<g id="node3" class="node">
<title>4394407504</title>
<polygon fill="none" stroke="black" points="369,-730.5 369,-804 474.25,-804 474.25,-730.5 369,-730.5"/>
<text text-anchor="middle" x="421.62" y="-786.7" font-family="Times,serif" font-size="14.00">x1</text>
<polyline fill="none" stroke="black" points="369,-779.5 474.25,-779.5"/>
<text text-anchor="middle" x="421.62" y="-762.2" font-family="Times,serif" font-size="14.00">data: 0.8000</text>
<polyline fill="none" stroke="black" points="369,-755 474.25,-755"/>
<text text-anchor="middle" x="421.62" y="-737.7" font-family="Times,serif" font-size="14.00">gradient: 1.2000</text>
</g>
<!-- 4394405840* -->
<g id="node17" class="node">
<title>4394405840*</title>
<ellipse fill="none" stroke="black" cx="421.62" cy="-676" rx="27" ry="18"/>
<text text-anchor="middle" x="421.62" y="-670.95" font-family="Times,serif" font-size="14.00">*</text>
</g>
<!-- 4394407504&#45;&gt;4394405840* -->
<g id="edge14" class="edge">
<title>4394407504&#45;&gt;4394405840*</title>
<path fill="none" stroke="black" d="M421.62,-730.21C421.62,-722.08 421.62,-713.56 421.62,-705.77"/>
<polygon fill="black" stroke="black" points="425.13,-705.83 421.63,-695.83 418.13,-705.83 425.13,-705.83"/>
</g>
<!-- 4394407888 -->
<g id="node4" class="node">
<title>4394407888</title>
<polygon fill="none" stroke="black" points="492,-730.5 492,-804 597.25,-804 597.25,-730.5 492,-730.5"/>
<text text-anchor="middle" x="544.62" y="-786.7" font-family="Times,serif" font-size="14.00">w1</text>
<polyline fill="none" stroke="black" points="492,-779.5 597.25,-779.5"/>
<text text-anchor="middle" x="544.62" y="-762.2" font-family="Times,serif" font-size="14.00">data: 1.2000</text>
<polyline fill="none" stroke="black" points="492,-755 597.25,-755"/>
<text text-anchor="middle" x="544.62" y="-737.7" font-family="Times,serif" font-size="14.00">gradient: 0.8000</text>
</g>
<!-- 4394407888&#45;&gt;4394405840* -->
<g id="edge17" class="edge">
<title>4394407888&#45;&gt;4394405840*</title>
<path fill="none" stroke="black" d="M494.95,-730.21C479.18,-718.76 462.33,-706.53 448.76,-696.69"/>
<polygon fill="black" stroke="black" points="450.9,-693.92 440.75,-690.88 446.79,-699.58 450.9,-693.92"/>
</g>
<!-- 4394405968 -->
<g id="node5" class="node">
<title>4394405968</title>
<polygon fill="none" stroke="black" points="246,-548 246,-621.5 351.25,-621.5 351.25,-548 246,-548"/>
<text text-anchor="middle" x="298.62" y="-604.2" font-family="Times,serif" font-size="14.00">w0.x0</text>
<polyline fill="none" stroke="black" points="246,-597 351.25,-597"/>
<text text-anchor="middle" x="298.62" y="-579.7" font-family="Times,serif" font-size="14.00">data: 2.0800</text>
<polyline fill="none" stroke="black" points="246,-572.5 351.25,-572.5"/>
<text text-anchor="middle" x="298.62" y="-555.2" font-family="Times,serif" font-size="14.00">gradient: 1.0000</text>
</g>
<!-- 4394405968&#45;&gt;4394405456+ -->
<g id="edge12" class="edge">
<title>4394405968&#45;&gt;4394405456+</title>
<path fill="none" stroke="black" d="M298.62,-547.71C298.62,-539.58 298.62,-531.06 298.62,-523.27"/>
<polygon fill="black" stroke="black" points="302.13,-523.33 298.63,-513.33 295.13,-523.33 302.13,-523.33"/>
</g>
<!-- 4394405968* -->
<g id="node6" class="node">
<title>4394405968*</title>
<ellipse fill="none" stroke="black" cx="298.62" cy="-676" rx="27" ry="18"/>
<text text-anchor="middle" x="298.62" y="-670.95" font-family="Times,serif" font-size="14.00">*</text>
</g>
<!-- 4394405968*&#45;&gt;4394405968 -->
<g id="edge2" class="edge">
<title>4394405968*&#45;&gt;4394405968</title>
<path fill="none" stroke="black" d="M298.62,-657.79C298.62,-650.6 298.62,-641.85 298.62,-632.97"/>
<polygon fill="black" stroke="black" points="302.13,-633.26 298.63,-623.26 295.13,-633.26 302.13,-633.26"/>
</g>
<!-- 4394405072 -->
<g id="node7" class="node">
<title>4394405072</title>
<polygon fill="none" stroke="black" points="167.88,-183 167.88,-256.5 305.38,-256.5 305.38,-183 167.88,-183"/>
<text text-anchor="middle" x="236.62" y="-239.2" font-family="Times,serif" font-size="14.00">w0x0 + w1x1 + w2x2</text>
<polyline fill="none" stroke="black" points="167.88,-232 305.38,-232"/>
<text text-anchor="middle" x="236.62" y="-214.7" font-family="Times,serif" font-size="14.00">data: 3.5900</text>
<polyline fill="none" stroke="black" points="167.88,-207.5 305.38,-207.5"/>
<text text-anchor="middle" x="236.62" y="-190.2" font-family="Times,serif" font-size="14.00">gradient: 1.0000</text>
</g>
<!-- 4394403792+ -->
<g id="node19" class="node">
<title>4394403792+</title>
<ellipse fill="none" stroke="black" cx="166.62" cy="-128.5" rx="27" ry="18"/>
<text text-anchor="middle" x="166.62" y="-123.45" font-family="Times,serif" font-size="14.00">+</text>
</g>
<!-- 4394405072&#45;&gt;4394403792+ -->
<g id="edge15" class="edge">
<title>4394405072&#45;&gt;4394403792+</title>
<path fill="none" stroke="black" d="M208.36,-182.71C200.78,-173.04 192.76,-162.82 185.8,-153.95"/>
<polygon fill="black" stroke="black" points="188.59,-151.84 179.67,-146.13 183.08,-156.16 188.59,-151.84"/>
</g>
<!-- 4394405072+&#45;&gt;4394405072 -->
<g id="edge3" class="edge">
<title>4394405072+&#45;&gt;4394405072</title>
<path fill="none" stroke="black" d="M236.62,-292.79C236.62,-285.6 236.62,-276.85 236.62,-267.97"/>
<polygon fill="black" stroke="black" points="240.13,-268.26 236.63,-258.26 233.13,-268.26 240.13,-268.26"/>
</g>
<!-- 4394406608 -->
<g id="node9" class="node">
<title>4394406608</title>
<polygon fill="none" stroke="black" points="45,-183 45,-256.5 150.25,-256.5 150.25,-183 45,-183"/>
<text text-anchor="middle" x="97.62" y="-239.2" font-family="Times,serif" font-size="14.00">b</text>
<polyline fill="none" stroke="black" points="45,-232 150.25,-232"/>
<text text-anchor="middle" x="97.62" y="-214.7" font-family="Times,serif" font-size="14.00">data: 0.2000</text>
<polyline fill="none" stroke="black" points="45,-207.5 150.25,-207.5"/>
<text text-anchor="middle" x="97.62" y="-190.2" font-family="Times,serif" font-size="14.00">gradient: 1.0000</text>
</g>
<!-- 4394406608&#45;&gt;4394403792+ -->
<g id="edge16" class="edge">
<title>4394406608&#45;&gt;4394403792+</title>
<path fill="none" stroke="black" d="M125.49,-182.71C132.96,-173.04 140.86,-162.82 147.72,-153.95"/>
<polygon fill="black" stroke="black" points="150.42,-156.19 153.76,-146.14 144.88,-151.91 150.42,-156.19"/>
</g>
<!-- 4394407120 -->
<g id="node10" class="node">
<title>4394407120</title>
<polygon fill="none" stroke="black" points="0,-548 0,-621.5 105.25,-621.5 105.25,-548 0,-548"/>
<text text-anchor="middle" x="52.62" y="-604.2" font-family="Times,serif" font-size="14.00">w2</text>
<polyline fill="none" stroke="black" points="0,-597 105.25,-597"/>
<text text-anchor="middle" x="52.62" y="-579.7" font-family="Times,serif" font-size="14.00">data: 1.1000</text>
<polyline fill="none" stroke="black" points="0,-572.5 105.25,-572.5"/>
<text text-anchor="middle" x="52.62" y="-555.2" font-family="Times,serif" font-size="14.00">gradient: 0.5000</text>
</g>
<!-- 4394405712* -->
<g id="node13" class="node">
<title>4394405712*</title>
<ellipse fill="none" stroke="black" cx="175.62" cy="-493.5" rx="27" ry="18"/>
<text text-anchor="middle" x="175.62" y="-488.45" font-family="Times,serif" font-size="14.00">*</text>
</g>
<!-- 4394407120&#45;&gt;4394405712* -->
<g id="edge18" class="edge">
<title>4394407120&#45;&gt;4394405712*</title>
<path fill="none" stroke="black" d="M102.3,-547.71C118.07,-536.26 134.92,-524.03 148.49,-514.19"/>
<polygon fill="black" stroke="black" points="150.46,-517.08 156.5,-508.38 146.35,-511.42 150.46,-517.08"/>
</g>
<!-- 4394407632 -->
<g id="node11" class="node">
<title>4394407632</title>
<polygon fill="none" stroke="black" points="123,-730.5 123,-804 228.25,-804 228.25,-730.5 123,-730.5"/>
<text text-anchor="middle" x="175.62" y="-786.7" font-family="Times,serif" font-size="14.00">x0</text>
<polyline fill="none" stroke="black" points="123,-779.5 228.25,-779.5"/>
<text text-anchor="middle" x="175.62" y="-762.2" font-family="Times,serif" font-size="14.00">data: 1.6000</text>
<polyline fill="none" stroke="black" points="123,-755 228.25,-755"/>
<text text-anchor="middle" x="175.62" y="-737.7" font-family="Times,serif" font-size="14.00">gradient: 1.3000</text>
</g>
<!-- 4394407632&#45;&gt;4394405968* -->
<g id="edge13" class="edge">
<title>4394407632&#45;&gt;4394405968*</title>
<path fill="none" stroke="black" d="M225.3,-730.21C241.07,-718.76 257.92,-706.53 271.49,-696.69"/>
<polygon fill="black" stroke="black" points="273.46,-699.58 279.5,-690.88 269.35,-693.92 273.46,-699.58"/>
</g>
<!-- 4394405712 -->
<g id="node12" class="node">
<title>4394405712</title>
<polygon fill="none" stroke="black" points="123,-365.5 123,-439 228.25,-439 228.25,-365.5 123,-365.5"/>
<text text-anchor="middle" x="175.62" y="-421.7" font-family="Times,serif" font-size="14.00">w2.x2</text>
<polyline fill="none" stroke="black" points="123,-414.5 228.25,-414.5"/>
<text text-anchor="middle" x="175.62" y="-397.2" font-family="Times,serif" font-size="14.00">data: 0.5500</text>
<polyline fill="none" stroke="black" points="123,-390 228.25,-390"/>
<text text-anchor="middle" x="175.62" y="-372.7" font-family="Times,serif" font-size="14.00">gradient: 1.0000</text>
</g>
<!-- 4394405712&#45;&gt;4394405072+ -->
<g id="edge10" class="edge">
<title>4394405712&#45;&gt;4394405072+</title>
<path fill="none" stroke="black" d="M200.26,-365.21C206.63,-355.89 213.35,-346.05 219.26,-337.4"/>
<polygon fill="black" stroke="black" points="222.15,-339.38 224.9,-329.15 216.37,-335.43 222.15,-339.38"/>
</g>
<!-- 4394405712*&#45;&gt;4394405712 -->
<g id="edge4" class="edge">
<title>4394405712*&#45;&gt;4394405712</title>
<path fill="none" stroke="black" d="M175.62,-475.29C175.62,-468.1 175.62,-459.35 175.62,-450.47"/>
<polygon fill="black" stroke="black" points="179.13,-450.76 175.63,-440.76 172.13,-450.76 179.13,-450.76"/>
</g>
<!-- 4394406736 -->
<g id="node14" class="node">
<title>4394406736</title>
<polygon fill="none" stroke="black" points="123,-548 123,-621.5 228.25,-621.5 228.25,-548 123,-548"/>
<text text-anchor="middle" x="175.62" y="-604.2" font-family="Times,serif" font-size="14.00">x2</text>
<polyline fill="none" stroke="black" points="123,-597 228.25,-597"/>
<text text-anchor="middle" x="175.62" y="-579.7" font-family="Times,serif" font-size="14.00">data: 0.5000</text>
<polyline fill="none" stroke="black" points="123,-572.5 228.25,-572.5"/>
<text text-anchor="middle" x="175.62" y="-555.2" font-family="Times,serif" font-size="14.00">gradient: 1.1000</text>
</g>
<!-- 4394406736&#45;&gt;4394405712* -->
<g id="edge9" class="edge">
<title>4394406736&#45;&gt;4394405712*</title>
<path fill="none" stroke="black" d="M175.62,-547.71C175.62,-539.58 175.62,-531.06 175.62,-523.27"/>
<polygon fill="black" stroke="black" points="179.13,-523.33 175.63,-513.33 172.13,-523.33 179.13,-523.33"/>
</g>
<!-- 4394407760 -->
<g id="node15" class="node">
<title>4394407760</title>
<polygon fill="none" stroke="black" points="246,-730.5 246,-804 351.25,-804 351.25,-730.5 246,-730.5"/>
<text text-anchor="middle" x="298.62" y="-786.7" font-family="Times,serif" font-size="14.00">w0</text>
<polyline fill="none" stroke="black" points="246,-779.5 351.25,-779.5"/>
<text text-anchor="middle" x="298.62" y="-762.2" font-family="Times,serif" font-size="14.00">data: 1.3000</text>
<polyline fill="none" stroke="black" points="246,-755 351.25,-755"/>
<text text-anchor="middle" x="298.62" y="-737.7" font-family="Times,serif" font-size="14.00">gradient: 1.6000</text>
</g>
<!-- 4394407760&#45;&gt;4394405968* -->
<g id="edge7" class="edge">
<title>4394407760&#45;&gt;4394405968*</title>
<path fill="none" stroke="black" d="M298.62,-730.21C298.62,-722.08 298.62,-713.56 298.62,-705.77"/>
<polygon fill="black" stroke="black" points="302.13,-705.83 298.63,-695.83 295.13,-705.83 302.13,-705.83"/>
</g>
<!-- 4394405840 -->
<g id="node16" class="node">
<title>4394405840</title>
<polygon fill="none" stroke="black" points="369,-548 369,-621.5 474.25,-621.5 474.25,-548 369,-548"/>
<text text-anchor="middle" x="421.62" y="-604.2" font-family="Times,serif" font-size="14.00">w1.x1</text>
<polyline fill="none" stroke="black" points="369,-597 474.25,-597"/>
<text text-anchor="middle" x="421.62" y="-579.7" font-family="Times,serif" font-size="14.00">data: 0.9600</text>
<polyline fill="none" stroke="black" points="369,-572.5 474.25,-572.5"/>
<text text-anchor="middle" x="421.62" y="-555.2" font-family="Times,serif" font-size="14.00">gradient: 1.0000</text>
</g>
<!-- 4394405840&#45;&gt;4394405456+ -->
<g id="edge8" class="edge">
<title>4394405840&#45;&gt;4394405456+</title>
<path fill="none" stroke="black" d="M371.95,-547.71C356.18,-536.26 339.33,-524.03 325.76,-514.19"/>
<polygon fill="black" stroke="black" points="327.9,-511.42 317.75,-508.38 323.79,-517.08 327.9,-511.42"/>
</g>
<!-- 4394405840*&#45;&gt;4394405840 -->
<g id="edge5" class="edge">
<title>4394405840*&#45;&gt;4394405840</title>
<path fill="none" stroke="black" d="M421.62,-657.79C421.62,-650.6 421.62,-641.85 421.62,-632.97"/>
<polygon fill="black" stroke="black" points="425.13,-633.26 421.63,-623.26 418.13,-633.26 425.13,-633.26"/>
</g>
<!-- 4394403792 -->
<g id="node18" class="node">
<title>4394403792</title>
<polygon fill="none" stroke="black" points="114,-0.5 114,-74 219.25,-74 219.25,-0.5 114,-0.5"/>
<text text-anchor="middle" x="166.62" y="-56.7" font-family="Times,serif" font-size="14.00">y</text>
<polyline fill="none" stroke="black" points="114,-49.5 219.25,-49.5"/>
<text text-anchor="middle" x="166.62" y="-32.2" font-family="Times,serif" font-size="14.00">data: 3.7900</text>
<polyline fill="none" stroke="black" points="114,-25 219.25,-25"/>
<text text-anchor="middle" x="166.62" y="-7.7" font-family="Times,serif" font-size="14.00">gradient: 1.0000</text>
</g>
<!-- 4394403792+&#45;&gt;4394403792 -->
<g id="edge6" class="edge">
<title>4394403792+&#45;&gt;4394403792</title>
<path fill="none" stroke="black" d="M166.62,-110.29C166.62,-103.1 166.62,-94.35 166.62,-85.47"/>
<polygon fill="black" stroke="black" points="170.13,-85.76 166.63,-75.76 163.13,-85.76 170.13,-85.76"/>
</g>
</g>
</svg>
