<?xml version="1.0" encoding="UTF-8" standalone="no"?>
<!DOCTYPE svg PUBLIC "-//W3C//DTD SVG 1.1//EN"
 "http://www.w3.org/Graphics/SVG/1.1/DTD/svg11.dtd">
<!-- Generated by graphviz version 12.2.1 (20241206.2353)
 -->
<!-- Pages: 1 -->
<svg width="817pt" height="100pt"
 viewBox="0.00 0.00 816.50 100.00" xmlns="http://www.w3.org/2000/svg" xmlns:xlink="http://www.w3.org/1999/xlink">
<g id="graph0" class="graph" transform="scale(1 1) rotate(0) translate(4 96)">
<polygon fill="white" stroke="none" points="-4,4 -4,-96 812.5,-96 812.5,4 -4,4"/>
<!-- 4497428544 -->
<g id="node1" class="node">
<title>4497428544</title>
<polygon fill="none" stroke="black" points="1.88,-0.5 1.88,-36.5 185.62,-36.5 185.62,-0.5 1.88,-0.5"/>
<text text-anchor="middle" x="13.25" y="-13.7" font-family="Times,serif" font-size="14.00">b</text>
<polyline fill="none" stroke="black" points="24.62,-1 24.62,-36.5"/>
<text text-anchor="middle" x="64.5" y="-13.7" font-family="Times,serif" font-size="14.00">data 2.0000</text>
<polyline fill="none" stroke="black" points="104.38,-1 104.38,-36.5"/>
<text text-anchor="middle" x="145" y="-13.7" font-family="Times,serif" font-size="14.00">grad 0.0000</text>
</g>
<!-- 4497521392* -->
<g id="node5" class="node">
<title>4497521392*</title>
<ellipse fill="none" stroke="black" cx="250.5" cy="-73.5" rx="27" ry="18"/>
<text text-anchor="middle" x="250.5" y="-68.45" font-family="Times,serif" font-size="14.00">*</text>
</g>
<!-- 4497428544&#45;&gt;4497521392* -->
<g id="edge4" class="edge">
<title>4497428544&#45;&gt;4497521392*</title>
<path fill="none" stroke="black" d="M159.44,-36.96C168.91,-39.97 178.5,-43.19 187.5,-46.5 197.35,-50.12 207.88,-54.5 217.41,-58.67"/>
<polygon fill="black" stroke="black" points="215.72,-61.75 226.28,-62.62 218.57,-55.36 215.72,-61.75"/>
</g>
<!-- 4498261392**3 -->
<g id="node8" class="node">
<title>4498261392**3</title>
<ellipse fill="none" stroke="black" cx="250.5" cy="-18.5" rx="27" ry="18"/>
<text text-anchor="middle" x="250.5" y="-13.45" font-family="Times,serif" font-size="14.00">**3</text>
</g>
<!-- 4497428544&#45;&gt;4498261392**3 -->
<g id="edge7" class="edge">
<title>4497428544&#45;&gt;4498261392**3</title>
<path fill="none" stroke="black" d="M186.11,-18.5C195.06,-18.5 203.76,-18.5 211.69,-18.5"/>
<polygon fill="black" stroke="black" points="211.57,-22 221.57,-18.5 211.57,-15 211.57,-22"/>
</g>
<!-- 4497504976 -->
<g id="node2" class="node">
<title>4497504976</title>
<polygon fill="none" stroke="black" points="624.75,-27.5 624.75,-63.5 808.5,-63.5 808.5,-27.5 624.75,-27.5"/>
<text text-anchor="middle" x="636.12" y="-40.7" font-family="Times,serif" font-size="14.00">d</text>
<polyline fill="none" stroke="black" points="647.5,-28 647.5,-63.5"/>
<text text-anchor="middle" x="687.38" y="-40.7" font-family="Times,serif" font-size="14.00">data 0.0000</text>
<polyline fill="none" stroke="black" points="727.25,-28 727.25,-63.5"/>
<text text-anchor="middle" x="767.88" y="-40.7" font-family="Times,serif" font-size="14.00">grad 0.0000</text>
</g>
<!-- 4497504976+ -->
<g id="node3" class="node">
<title>4497504976+</title>
<ellipse fill="none" stroke="black" cx="561.75" cy="-45.5" rx="27" ry="18"/>
<text text-anchor="middle" x="561.75" y="-40.45" font-family="Times,serif" font-size="14.00">+</text>
</g>
<!-- 4497504976+&#45;&gt;4497504976 -->
<g id="edge1" class="edge">
<title>4497504976+&#45;&gt;4497504976</title>
<path fill="none" stroke="black" d="M589.03,-45.5C596.17,-45.5 604.36,-45.5 613.07,-45.5"/>
<polygon fill="black" stroke="black" points="612.81,-49 622.81,-45.5 612.81,-42 612.81,-49"/>
</g>
<!-- 4497521392 -->
<g id="node4" class="node">
<title>4497521392</title>
<polygon fill="none" stroke="black" points="313.5,-55.5 313.5,-91.5 498.75,-91.5 498.75,-55.5 313.5,-55.5"/>
<text text-anchor="middle" x="323.38" y="-68.7" font-family="Times,serif" font-size="14.00"> </text>
<polyline fill="none" stroke="black" points="333.25,-56 333.25,-91.5"/>
<text text-anchor="middle" x="375.38" y="-68.7" font-family="Times,serif" font-size="14.00">data &#45;8.0000</text>
<polyline fill="none" stroke="black" points="417.5,-56 417.5,-91.5"/>
<text text-anchor="middle" x="458.12" y="-68.7" font-family="Times,serif" font-size="14.00">grad 0.0000</text>
</g>
<!-- 4497521392&#45;&gt;4497504976+ -->
<g id="edge6" class="edge">
<title>4497521392&#45;&gt;4497504976+</title>
<path fill="none" stroke="black" d="M499.15,-56.73C507.89,-55.13 516.36,-53.59 524.08,-52.18"/>
<polygon fill="black" stroke="black" points="524.45,-55.67 533.66,-50.44 523.19,-48.79 524.45,-55.67"/>
</g>
<!-- 4497521392*&#45;&gt;4497521392 -->
<g id="edge2" class="edge">
<title>4497521392*&#45;&gt;4497521392</title>
<path fill="none" stroke="black" d="M277.91,-73.5C284.95,-73.5 293,-73.5 301.55,-73.5"/>
<polygon fill="black" stroke="black" points="301.54,-77 311.54,-73.5 301.54,-70 301.54,-77"/>
</g>
<!-- 4498048848 -->
<g id="node6" class="node">
<title>4498048848</title>
<polygon fill="none" stroke="black" points="0,-55.5 0,-91.5 187.5,-91.5 187.5,-55.5 0,-55.5"/>
<text text-anchor="middle" x="11" y="-68.7" font-family="Times,serif" font-size="14.00">a</text>
<polyline fill="none" stroke="black" points="22,-56 22,-91.5"/>
<text text-anchor="middle" x="64.12" y="-68.7" font-family="Times,serif" font-size="14.00">data &#45;4.0000</text>
<polyline fill="none" stroke="black" points="106.25,-56 106.25,-91.5"/>
<text text-anchor="middle" x="146.88" y="-68.7" font-family="Times,serif" font-size="14.00">grad 0.0000</text>
</g>
<!-- 4498048848&#45;&gt;4497521392* -->
<g id="edge8" class="edge">
<title>4498048848&#45;&gt;4497521392*</title>
<path fill="none" stroke="black" d="M187.89,-73.5C196.2,-73.5 204.24,-73.5 211.64,-73.5"/>
<polygon fill="black" stroke="black" points="211.5,-77 221.5,-73.5 211.5,-70 211.5,-77"/>
</g>
<!-- 4498261392 -->
<g id="node7" class="node">
<title>4498261392</title>
<polygon fill="none" stroke="black" points="315.75,-0.5 315.75,-36.5 496.5,-36.5 496.5,-0.5 315.75,-0.5"/>
<text text-anchor="middle" x="325.62" y="-13.7" font-family="Times,serif" font-size="14.00"> </text>
<polyline fill="none" stroke="black" points="335.5,-1 335.5,-36.5"/>
<text text-anchor="middle" x="375.38" y="-13.7" font-family="Times,serif" font-size="14.00">data 8.0000</text>
<polyline fill="none" stroke="black" points="415.25,-1 415.25,-36.5"/>
<text text-anchor="middle" x="455.88" y="-13.7" font-family="Times,serif" font-size="14.00">grad 0.0000</text>
</g>
<!-- 4498261392&#45;&gt;4497504976+ -->
<g id="edge5" class="edge">
<title>4498261392&#45;&gt;4497504976+</title>
<path fill="none" stroke="black" d="M496.93,-34.28C506.48,-35.96 515.76,-37.59 524.14,-39.07"/>
<polygon fill="black" stroke="black" points="523.39,-42.49 533.85,-40.77 524.61,-35.59 523.39,-42.49"/>
</g>
<!-- 4498261392**3&#45;&gt;4498261392 -->
<g id="edge3" class="edge">
<title>4498261392**3&#45;&gt;4498261392</title>
<path fill="none" stroke="black" d="M277.91,-18.5C285.62,-18.5 294.54,-18.5 304.01,-18.5"/>
<polygon fill="black" stroke="black" points="303.82,-22 313.82,-18.5 303.82,-15 303.82,-22"/>
</g>
</g>
</svg>
