<?xml version="1.0" encoding="UTF-8" standalone="no"?>
<!DOCTYPE svg PUBLIC "-//W3C//DTD SVG 1.1//EN"
 "http://www.w3.org/Graphics/SVG/1.1/DTD/svg11.dtd">
<!-- Generated by graphviz version 12.2.1 (20241206.2353)
 -->
<!-- Pages: 1 -->
<svg width="502pt" height="848pt"
 viewBox="0.00 0.00 501.50 848.00" xmlns="http://www.w3.org/2000/svg" xmlns:xlink="http://www.w3.org/1999/xlink">
<g id="graph0" class="graph" transform="scale(1 1) rotate(0) translate(4 844)">
<polygon fill="white" stroke="none" points="-4,4 -4,-844 497.5,-844 497.5,4 -4,4"/>
<!-- 4465159696 -->
<g id="node1" class="node">
<title>4465159696</title>
<polygon fill="none" stroke="black" points="0,-790.5 0,-839.5 83.5,-839.5 83.5,-790.5 0,-790.5"/>
<text text-anchor="middle" x="41.75" y="-822.2" font-family="Times,serif" font-size="14.00">input: x0</text>
<polyline fill="none" stroke="black" points="0,-815 83.5,-815"/>
<text text-anchor="middle" x="41.75" y="-797.7" font-family="Times,serif" font-size="14.00">data: 1.6000</text>
</g>
<!-- 4465995376* -->
<g id="node13" class="node">
<title>4465995376*</title>
<ellipse fill="none" stroke="black" cx="143.75" cy="-736" rx="27" ry="18"/>
<text text-anchor="middle" x="143.75" y="-730.95" font-family="Times,serif" font-size="14.00">*</text>
</g>
<!-- 4465159696&#45;&gt;4465995376* -->
<g id="edge14" class="edge">
<title>4465159696&#45;&gt;4465995376*</title>
<path fill="none" stroke="black" d="M73.46,-790.06C87.49,-779.47 103.79,-767.16 117.17,-757.07"/>
<polygon fill="black" stroke="black" points="119.23,-759.89 125.1,-751.08 115.01,-754.31 119.23,-759.89"/>
</g>
<!-- 4471087568 -->
<g id="node2" class="node">
<title>4471087568</title>
<polygon fill="none" stroke="black" points="198.88,-474.5 198.88,-523.5 290.62,-523.5 290.62,-474.5 198.88,-474.5"/>
<text text-anchor="middle" x="244.75" y="-506.2" font-family="Times,serif" font-size="14.00">w0x0 + w1x1</text>
<polyline fill="none" stroke="black" points="198.88,-499 290.62,-499"/>
<text text-anchor="middle" x="244.75" y="-481.7" font-family="Times,serif" font-size="14.00">data: 3.0400</text>
</g>
<!-- 4471089232+ -->
<g id="node6" class="node">
<title>4471089232+</title>
<ellipse fill="none" stroke="black" cx="297.75" cy="-420" rx="27" ry="18"/>
<text text-anchor="middle" x="297.75" y="-414.95" font-family="Times,serif" font-size="14.00">+</text>
</g>
<!-- 4471087568&#45;&gt;4471089232+ -->
<g id="edge12" class="edge">
<title>4471087568&#45;&gt;4471089232+</title>
<path fill="none" stroke="black" d="M261.23,-474.06C267.39,-465.11 274.39,-454.93 280.61,-445.9"/>
<polygon fill="black" stroke="black" points="283.33,-448.13 286.11,-437.91 277.56,-444.16 283.33,-448.13"/>
</g>
<!-- 4471087568+ -->
<g id="node3" class="node">
<title>4471087568+</title>
<ellipse fill="none" stroke="black" cx="244.75" cy="-578" rx="27" ry="18"/>
<text text-anchor="middle" x="244.75" y="-572.95" font-family="Times,serif" font-size="14.00">+</text>
</g>
<!-- 4471087568+&#45;&gt;4471087568 -->
<g id="edge1" class="edge">
<title>4471087568+&#45;&gt;4471087568</title>
<path fill="none" stroke="black" d="M244.75,-559.53C244.75,-552.27 244.75,-543.57 244.75,-535.09"/>
<polygon fill="black" stroke="black" points="248.25,-535.34 244.75,-525.34 241.25,-535.34 248.25,-535.34"/>
</g>
<!-- 4471107648 -->
<g id="node4" class="node">
<title>4471107648</title>
<polygon fill="none" stroke="black" points="102,-790.5 102,-839.5 185.5,-839.5 185.5,-790.5 102,-790.5"/>
<text text-anchor="middle" x="143.75" y="-822.2" font-family="Times,serif" font-size="14.00">weight: w0</text>
<polyline fill="none" stroke="black" points="102,-815 185.5,-815"/>
<text text-anchor="middle" x="143.75" y="-797.7" font-family="Times,serif" font-size="14.00">data: 1.3000</text>
</g>
<!-- 4471107648&#45;&gt;4465995376* -->
<g id="edge11" class="edge">
<title>4471107648&#45;&gt;4465995376*</title>
<path fill="none" stroke="black" d="M143.75,-790.06C143.75,-782.23 143.75,-773.46 143.75,-765.33"/>
<polygon fill="black" stroke="black" points="147.25,-765.6 143.75,-755.6 140.25,-765.6 147.25,-765.6"/>
</g>
<!-- 4471089232 -->
<g id="node5" class="node">
<title>4471089232</title>
<polygon fill="none" stroke="black" points="229,-316.5 229,-365.5 366.5,-365.5 366.5,-316.5 229,-316.5"/>
<text text-anchor="middle" x="297.75" y="-348.2" font-family="Times,serif" font-size="14.00">w0x0 + w1x1 + w2x2</text>
<polyline fill="none" stroke="black" points="229,-341 366.5,-341"/>
<text text-anchor="middle" x="297.75" y="-323.7" font-family="Times,serif" font-size="14.00">data: 3.5900</text>
</g>
<!-- 4471084624+ -->
<g id="node8" class="node">
<title>4471084624+</title>
<ellipse fill="none" stroke="black" cx="361.75" cy="-262" rx="27" ry="18"/>
<text text-anchor="middle" x="361.75" y="-256.95" font-family="Times,serif" font-size="14.00">+</text>
</g>
<!-- 4471089232&#45;&gt;4471084624+ -->
<g id="edge20" class="edge">
<title>4471089232&#45;&gt;4471084624+</title>
<path fill="none" stroke="black" d="M317.65,-316.06C325.35,-306.79 334.16,-296.2 341.86,-286.93"/>
<polygon fill="black" stroke="black" points="344.45,-289.29 348.15,-279.36 339.07,-284.81 344.45,-289.29"/>
</g>
<!-- 4471089232+&#45;&gt;4471089232 -->
<g id="edge2" class="edge">
<title>4471089232+&#45;&gt;4471089232</title>
<path fill="none" stroke="black" d="M297.75,-401.53C297.75,-394.27 297.75,-385.57 297.75,-377.09"/>
<polygon fill="black" stroke="black" points="301.25,-377.34 297.75,-367.34 294.25,-377.34 301.25,-377.34"/>
</g>
<!-- 4471084624 -->
<g id="node7" class="node">
<title>4471084624</title>
<polygon fill="none" stroke="black" points="320,-158.5 320,-207.5 403.5,-207.5 403.5,-158.5 320,-158.5"/>
<text text-anchor="middle" x="361.75" y="-190.2" font-family="Times,serif" font-size="14.00">z</text>
<polyline fill="none" stroke="black" points="320,-183 403.5,-183"/>
<text text-anchor="middle" x="361.75" y="-165.7" font-family="Times,serif" font-size="14.00">data: 3.7900</text>
</g>
<!-- 4471087056tanh (Activation Function) -->
<g id="node21" class="node">
<title>4471087056tanh (Activation Function)</title>
<ellipse fill="none" stroke="black" cx="361.75" cy="-104" rx="109.7" ry="18"/>
<text text-anchor="middle" x="361.75" y="-98.95" font-family="Times,serif" font-size="14.00">tanh (Activation Function)</text>
</g>
<!-- 4471084624&#45;&gt;4471087056tanh (Activation Function) -->
<g id="edge19" class="edge">
<title>4471084624&#45;&gt;4471087056tanh (Activation Function)</title>
<path fill="none" stroke="black" d="M361.75,-158.06C361.75,-150.23 361.75,-141.46 361.75,-133.33"/>
<polygon fill="black" stroke="black" points="365.25,-133.6 361.75,-123.6 358.25,-133.6 365.25,-133.6"/>
</g>
<!-- 4471084624+&#45;&gt;4471084624 -->
<g id="edge3" class="edge">
<title>4471084624+&#45;&gt;4471084624</title>
<path fill="none" stroke="black" d="M361.75,-243.53C361.75,-236.27 361.75,-227.57 361.75,-219.09"/>
<polygon fill="black" stroke="black" points="365.25,-219.34 361.75,-209.34 358.25,-219.34 365.25,-219.34"/>
</g>
<!-- 4546644080 -->
<g id="node9" class="node">
<title>4546644080</title>
<polygon fill="none" stroke="black" points="308,-632.5 308,-681.5 391.5,-681.5 391.5,-632.5 308,-632.5"/>
<text text-anchor="middle" x="349.75" y="-664.2" font-family="Times,serif" font-size="14.00">input: x2</text>
<polyline fill="none" stroke="black" points="308,-657 391.5,-657"/>
<text text-anchor="middle" x="349.75" y="-639.7" font-family="Times,serif" font-size="14.00">data: 0.5000</text>
</g>
<!-- 4471083216* -->
<g id="node15" class="node">
<title>4471083216*</title>
<ellipse fill="none" stroke="black" cx="350.75" cy="-578" rx="27" ry="18"/>
<text text-anchor="middle" x="350.75" y="-572.95" font-family="Times,serif" font-size="14.00">*</text>
</g>
<!-- 4546644080&#45;&gt;4471083216* -->
<g id="edge8" class="edge">
<title>4546644080&#45;&gt;4471083216*</title>
<path fill="none" stroke="black" d="M350.06,-632.06C350.16,-624.23 350.28,-615.46 350.38,-607.33"/>
<polygon fill="black" stroke="black" points="353.88,-607.64 350.51,-597.6 346.88,-607.55 353.88,-607.64"/>
</g>
<!-- 4471090640 -->
<g id="node10" class="node">
<title>4471090640</title>
<polygon fill="none" stroke="black" points="204,-632.5 204,-681.5 287.5,-681.5 287.5,-632.5 204,-632.5"/>
<text text-anchor="middle" x="245.75" y="-664.2" font-family="Times,serif" font-size="14.00">w1.x1</text>
<polyline fill="none" stroke="black" points="204,-657 287.5,-657"/>
<text text-anchor="middle" x="245.75" y="-639.7" font-family="Times,serif" font-size="14.00">data: 0.9600</text>
</g>
<!-- 4471090640&#45;&gt;4471087568+ -->
<g id="edge18" class="edge">
<title>4471090640&#45;&gt;4471087568+</title>
<path fill="none" stroke="black" d="M245.44,-632.06C245.34,-624.23 245.22,-615.46 245.12,-607.33"/>
<polygon fill="black" stroke="black" points="248.62,-607.55 244.99,-597.6 241.62,-607.64 248.62,-607.55"/>
</g>
<!-- 4471090640* -->
<g id="node11" class="node">
<title>4471090640*</title>
<ellipse fill="none" stroke="black" cx="245.75" cy="-736" rx="27" ry="18"/>
<text text-anchor="middle" x="245.75" y="-730.95" font-family="Times,serif" font-size="14.00">*</text>
</g>
<!-- 4471090640*&#45;&gt;4471090640 -->
<g id="edge4" class="edge">
<title>4471090640*&#45;&gt;4471090640</title>
<path fill="none" stroke="black" d="M245.75,-717.53C245.75,-710.27 245.75,-701.57 245.75,-693.09"/>
<polygon fill="black" stroke="black" points="249.25,-693.34 245.75,-683.34 242.25,-693.34 249.25,-693.34"/>
</g>
<!-- 4465995376 -->
<g id="node12" class="node">
<title>4465995376</title>
<polygon fill="none" stroke="black" points="102,-632.5 102,-681.5 185.5,-681.5 185.5,-632.5 102,-632.5"/>
<text text-anchor="middle" x="143.75" y="-664.2" font-family="Times,serif" font-size="14.00">w0.x0</text>
<polyline fill="none" stroke="black" points="102,-657 185.5,-657"/>
<text text-anchor="middle" x="143.75" y="-639.7" font-family="Times,serif" font-size="14.00">data: 2.0800</text>
</g>
<!-- 4465995376&#45;&gt;4471087568+ -->
<g id="edge13" class="edge">
<title>4465995376&#45;&gt;4471087568+</title>
<path fill="none" stroke="black" d="M175.15,-632.06C189.04,-621.47 205.18,-609.16 218.43,-599.07"/>
<polygon fill="black" stroke="black" points="220.45,-601.93 226.28,-593.08 216.2,-596.36 220.45,-601.93"/>
</g>
<!-- 4465995376*&#45;&gt;4465995376 -->
<g id="edge5" class="edge">
<title>4465995376*&#45;&gt;4465995376</title>
<path fill="none" stroke="black" d="M143.75,-717.53C143.75,-710.27 143.75,-701.57 143.75,-693.09"/>
<polygon fill="black" stroke="black" points="147.25,-693.34 143.75,-683.34 140.25,-693.34 147.25,-693.34"/>
</g>
<!-- 4471083216 -->
<g id="node14" class="node">
<title>4471083216</title>
<polygon fill="none" stroke="black" points="309,-474.5 309,-523.5 392.5,-523.5 392.5,-474.5 309,-474.5"/>
<text text-anchor="middle" x="350.75" y="-506.2" font-family="Times,serif" font-size="14.00">w2.x2</text>
<polyline fill="none" stroke="black" points="309,-499 392.5,-499"/>
<text text-anchor="middle" x="350.75" y="-481.7" font-family="Times,serif" font-size="14.00">data: 0.5500</text>
</g>
<!-- 4471083216&#45;&gt;4471089232+ -->
<g id="edge15" class="edge">
<title>4471083216&#45;&gt;4471089232+</title>
<path fill="none" stroke="black" d="M334.27,-474.06C328.11,-465.11 321.11,-454.93 314.89,-445.9"/>
<polygon fill="black" stroke="black" points="317.94,-444.16 309.39,-437.91 312.17,-448.13 317.94,-444.16"/>
</g>
<!-- 4471083216*&#45;&gt;4471083216 -->
<g id="edge6" class="edge">
<title>4471083216*&#45;&gt;4471083216</title>
<path fill="none" stroke="black" d="M350.75,-559.53C350.75,-552.27 350.75,-543.57 350.75,-535.09"/>
<polygon fill="black" stroke="black" points="354.25,-535.34 350.75,-525.34 347.25,-535.34 354.25,-535.34"/>
</g>
<!-- 4470810848 -->
<g id="node16" class="node">
<title>4470810848</title>
<polygon fill="none" stroke="black" points="410,-632.5 410,-681.5 493.5,-681.5 493.5,-632.5 410,-632.5"/>
<text text-anchor="middle" x="451.75" y="-664.2" font-family="Times,serif" font-size="14.00">weight: w2</text>
<polyline fill="none" stroke="black" points="410,-657 493.5,-657"/>
<text text-anchor="middle" x="451.75" y="-639.7" font-family="Times,serif" font-size="14.00">data: 1.1000</text>
</g>
<!-- 4470810848&#45;&gt;4471083216* -->
<g id="edge10" class="edge">
<title>4470810848&#45;&gt;4471083216*</title>
<path fill="none" stroke="black" d="M420.35,-632.06C406.46,-621.47 390.32,-609.16 377.07,-599.07"/>
<polygon fill="black" stroke="black" points="379.3,-596.36 369.22,-593.08 375.05,-601.93 379.3,-596.36"/>
</g>
<!-- 4465159504 -->
<g id="node17" class="node">
<title>4465159504</title>
<polygon fill="none" stroke="black" points="204,-790.5 204,-839.5 287.5,-839.5 287.5,-790.5 204,-790.5"/>
<text text-anchor="middle" x="245.75" y="-822.2" font-family="Times,serif" font-size="14.00">weight: w1</text>
<polyline fill="none" stroke="black" points="204,-815 287.5,-815"/>
<text text-anchor="middle" x="245.75" y="-797.7" font-family="Times,serif" font-size="14.00">data: 1.2000</text>
</g>
<!-- 4465159504&#45;&gt;4471090640* -->
<g id="edge16" class="edge">
<title>4465159504&#45;&gt;4471090640*</title>
<path fill="none" stroke="black" d="M245.75,-790.06C245.75,-782.23 245.75,-773.46 245.75,-765.33"/>
<polygon fill="black" stroke="black" points="249.25,-765.6 245.75,-755.6 242.25,-765.6 249.25,-765.6"/>
</g>
<!-- 4470811024 -->
<g id="node18" class="node">
<title>4470811024</title>
<polygon fill="none" stroke="black" points="306,-790.5 306,-839.5 389.5,-839.5 389.5,-790.5 306,-790.5"/>
<text text-anchor="middle" x="347.75" y="-822.2" font-family="Times,serif" font-size="14.00">input: x1</text>
<polyline fill="none" stroke="black" points="306,-815 389.5,-815"/>
<text text-anchor="middle" x="347.75" y="-797.7" font-family="Times,serif" font-size="14.00">data: 0.8000</text>
</g>
<!-- 4470811024&#45;&gt;4471090640* -->
<g id="edge9" class="edge">
<title>4470811024&#45;&gt;4471090640*</title>
<path fill="none" stroke="black" d="M316.04,-790.06C302.01,-779.47 285.71,-767.16 272.33,-757.07"/>
<polygon fill="black" stroke="black" points="274.49,-754.31 264.4,-751.08 270.27,-759.89 274.49,-754.31"/>
</g>
<!-- 4546644400 -->
<g id="node19" class="node">
<title>4546644400</title>
<polygon fill="none" stroke="black" points="385,-316.5 385,-365.5 468.5,-365.5 468.5,-316.5 385,-316.5"/>
<text text-anchor="middle" x="426.75" y="-348.2" font-family="Times,serif" font-size="14.00">bias: b</text>
<polyline fill="none" stroke="black" points="385,-341 468.5,-341"/>
<text text-anchor="middle" x="426.75" y="-323.7" font-family="Times,serif" font-size="14.00">data: 0.2000</text>
</g>
<!-- 4546644400&#45;&gt;4471084624+ -->
<g id="edge17" class="edge">
<title>4546644400&#45;&gt;4471084624+</title>
<path fill="none" stroke="black" d="M406.54,-316.06C398.71,-306.79 389.77,-296.2 381.95,-286.93"/>
<polygon fill="black" stroke="black" points="384.68,-284.74 375.55,-279.35 379.33,-289.25 384.68,-284.74"/>
</g>
<!-- 4471087056 -->
<g id="node20" class="node">
<title>4471087056</title>
<polygon fill="none" stroke="black" points="282.88,-0.5 282.88,-49.5 440.62,-49.5 440.62,-0.5 282.88,-0.5"/>
<text text-anchor="middle" x="361.75" y="-32.2" font-family="Times,serif" font-size="14.00">y (final output of Neuron)</text>
<polyline fill="none" stroke="black" points="282.88,-25 440.62,-25"/>
<text text-anchor="middle" x="361.75" y="-7.7" font-family="Times,serif" font-size="14.00">data: 0.9990</text>
</g>
<!-- 4471087056tanh (Activation Function)&#45;&gt;4471087056 -->
<g id="edge7" class="edge">
<title>4471087056tanh (Activation Function)&#45;&gt;4471087056</title>
<path fill="none" stroke="black" d="M361.75,-85.53C361.75,-78.27 361.75,-69.57 361.75,-61.09"/>
<polygon fill="black" stroke="black" points="365.25,-61.34 361.75,-51.34 358.25,-61.34 365.25,-61.34"/>
</g>
</g>
</svg>
